<mxfile host="app.diagrams.net" modified="2023-05-04T07:13:15.866Z" agent="Mozilla/5.0 (Windows NT 10.0; WOW64) AppleWebKit/537.36 (KHTML, like Gecko) Chrome/96.0.4664.45 Safari/537.36" version="21.2.3" etag="LSwZnM8_Q5CInpi8XYcb" type="github">
  <diagram name="第 1 页" id="9JZmJAqXBaCKE_u-9fMa">
    <mxGraphModel>
      <root>
        <mxCell id="0" />
        <mxCell id="1" parent="0" />
      </root>
    </mxGraphModel>
  </diagram>
</mxfile>
